# xmcd
#
# Track frame offsets: 
#        150
#        35560
#        56697
#        76717
#        99513
#        119725
#        149055
#        192149
#        221478
#
# Disc length: 3097 seconds
#
# Revision: 1
# Processed by: cddbd v1.5.2PL0 Copyright (c) Steve Scherf et al.
# Submitted via: ExactAudioCopy v1.1
#
DISCID=820c1709
DTITLE=Thelonious Monk Quartet - Thelonious Monk Quartet With John Col
DTITLE=trane At Carnegie Hall
DYEAR=1957
DGENRE=Jazz
TTITLE0=Monk's Mood (live) (mono)
TTITLE1=Evidence (live) (mono)
TTITLE2=Crepuscule With Nellie (live) (mono)
TTITLE3=Nutty (live) (mono)
TTITLE4=Epistrophy (live) (mono)
TTITLE5=Bye-Ya (live) (mono)
TTITLE6=Sweet And Lovely (live) (mono)
TTITLE7=Blue Monk (live) (mono)
TTITLE8=Epistrophy (Reprise) (live) (mono)
EXTD=YEAR: 1957
EXTT0=
EXTT1=
EXTT2=
EXTT3=
EXTT4=
EXTT5=
EXTT6=
EXTT7=
EXTT8=
PLAYORDER=
